<svg width="18" height="18" viewBox="0 0 18 18" fill="none" xmlns="http://www.w3.org/2000/svg">
<g clip-path="url(#clip0_6791_5764)">
<path d="M8.25488 15.75H7.2041C4.51516 15.75 3.17069 15.75 2.33534 14.8987C1.5 14.0476 1.5 12.6775 1.5 9.9375C1.5 7.19746 1.5 5.82744 2.33534 4.97622C3.17069 4.125 4.51516 4.125 7.2041 4.125H10.0562C12.7451 4.125 14.0896 4.125 14.9249 4.97622C15.5676 5.63114 15.7158 6.59317 15.75 8.25" stroke="#0D1A21" stroke-width="1.125" stroke-linecap="round"/>
<path d="M12.8332 9.94133C12.9717 9.81375 13.0409 9.75 13.125 9.75C13.2091 9.75 13.2783 9.81375 13.4167 9.94133L13.9513 10.4338C14.0158 10.4933 14.0481 10.523 14.0882 10.5377C14.1283 10.5525 14.1722 10.5508 14.26 10.5473L14.9821 10.519C15.1681 10.5116 15.2611 10.508 15.3248 10.5616C15.3886 10.6151 15.4009 10.7074 15.4258 10.8918L15.5253 11.6308C15.5368 11.7162 15.5425 11.7589 15.5633 11.7953C15.5842 11.8318 15.618 11.8584 15.6857 11.9117L16.2673 12.3696C16.4113 12.4829 16.4833 12.5396 16.4975 12.6206C16.5118 12.7016 16.4635 12.7793 16.3669 12.935L15.9724 13.5707C15.9272 13.6435 15.9047 13.6798 15.8975 13.7209C15.8903 13.762 15.8992 13.8039 15.9171 13.8876L16.0736 14.6214C16.112 14.8017 16.1313 14.8918 16.09 14.9635C16.0487 15.035 15.961 15.0636 15.7858 15.1207L15.0915 15.3468C15.0088 15.3737 14.9674 15.3872 14.935 15.4146C14.9027 15.442 14.8827 15.4807 14.8426 15.5579L14.5035 16.2116C14.417 16.3781 14.3738 16.4614 14.2951 16.4901C14.2163 16.5188 14.1296 16.4829 13.9563 16.411L13.29 16.1346C13.2085 16.1009 13.1679 16.084 13.125 16.084C13.0821 16.084 13.0414 16.1009 12.96 16.1346L12.2937 16.411C12.1204 16.4829 12.0337 16.5188 11.9549 16.4901C11.8762 16.4614 11.833 16.3781 11.7465 16.2116L11.4073 15.5579C11.3673 15.4807 11.3473 15.442 11.3149 15.4146C11.2826 15.3872 11.2412 15.3737 11.1585 15.3468L10.4642 15.1207C10.2889 15.0636 10.2013 15.035 10.16 14.9635C10.1187 14.8918 10.138 14.8017 10.1764 14.6214L10.3329 13.8876C10.3507 13.8039 10.3597 13.762 10.3525 13.7209C10.3453 13.6798 10.3228 13.6435 10.2776 13.5707L9.88311 12.935C9.78651 12.7793 9.73821 12.7016 9.75246 12.6206C9.76671 12.5396 9.83871 12.4829 9.98263 12.3696L10.5643 11.9117C10.632 11.8584 10.6658 11.8318 10.6867 11.7953C10.7074 11.7589 10.7132 11.7162 10.7247 11.6308L10.8242 10.8918C10.849 10.7074 10.8614 10.6151 10.9252 10.5616C10.9889 10.508 11.0819 10.5116 11.2678 10.519L11.99 10.5473C12.0778 10.5508 12.1216 10.5525 12.1618 10.5377C12.2019 10.523 12.2341 10.4933 12.2987 10.4338L12.8332 9.94133Z" stroke="#0D1A21" stroke-width="1.125" stroke-linecap="round"/>
<path d="M12 4.125L11.9255 3.8932C11.5542 2.73817 11.3686 2.16065 10.9266 1.83032C10.4847 1.5 9.8977 1.5 8.72365 1.5H8.52633C7.35228 1.5 6.76526 1.5 6.32333 1.83032C5.88139 2.16065 5.69576 2.73817 5.3245 3.8932L5.25 4.125" stroke="#0D1A21" stroke-width="1.125" stroke-linecap="round"/>
</g>
<defs>
<clipPath id="clip0_6791_5764">
<rect width="18" height="18" fill="white"/>
</clipPath>
</defs>
</svg>
