<svg width="16" height="16" viewBox="0 0 16 16" fill="none" xmlns="http://www.w3.org/2000/svg">
<path d="M13.0013 6.66634V1.33301H1.66809L1.66797 14.6663H7.33464" stroke="#F8FBFC" stroke-linecap="square"/>
<path d="M4.66797 4.66699H10.0013M4.66797 8.00033H7.66797" stroke="#F8FBFC" stroke-linecap="square"/>
<path d="M11.6667 13.8488C12.8449 13.8488 13.8 12.872 13.8 11.667C13.8 10.462 12.8449 9.48517 11.6667 9.48517M11.6667 13.8488C10.4885 13.8488 9.53333 12.872 9.53333 11.667C9.53333 10.462 10.4885 9.48517 11.6667 9.48517M11.6667 13.8488V14.667M11.6667 9.48517V8.66699M9.72753 10.4769L9.0003 10.0306M14.3333 13.3034L13.6061 12.8571M13.6058 10.4769L14.333 10.0306M9 13.3034L9.72723 12.8571" stroke="#F8FBFC" stroke-linecap="square"/>
</svg>
