<svg width="16" height="16" viewBox="0 0 16 16" fill="none" xmlns="http://www.w3.org/2000/svg">
<path d="M2 3.66667C2 9.37361 6.62639 14 12.3333 14C12.5908 14 12.8461 13.9906 13.0989 13.9721C13.3889 13.9508 13.534 13.9402 13.666 13.8642C13.7753 13.8012 13.879 13.6897 13.9338 13.576C14 13.4388 14 13.2787 14 12.9587V11.0805C14 10.8113 14 10.6767 13.9557 10.5613C13.9166 10.4594 13.853 10.3687 13.7706 10.2971C13.6773 10.216 13.5508 10.17 13.2979 10.078L13.2979 10.078L11.16 9.3006C10.8657 9.19357 10.7185 9.14006 10.5789 9.14914C10.4558 9.15715 10.3373 9.19917 10.2366 9.27051C10.1225 9.35143 10.0419 9.4857 9.88079 9.75424L9.88079 9.75425L9.33333 10.6667C7.56676 9.8666 6.1346 8.43258 5.33333 6.66667L6.24575 6.11921C6.5143 5.95809 6.64857 5.87752 6.72949 5.76337C6.80083 5.66272 6.84285 5.54425 6.85086 5.42113C6.85994 5.28151 6.80643 5.13435 6.6994 4.84003L5.92199 2.70214C5.83 2.44917 5.78401 2.32269 5.70295 2.2294C5.63134 2.14699 5.5406 2.08343 5.43868 2.0443C5.32331 2 5.18872 2 4.91954 2H3.04134C2.72125 2 2.56121 2 2.42399 2.06617C2.31033 2.12097 2.19876 2.22468 2.1358 2.33402C2.05979 2.46604 2.04917 2.61108 2.02793 2.90115C2.00942 3.15391 2 3.40919 2 3.66667Z" stroke="#F8FBFC" stroke-width="1.2" stroke-linecap="round" stroke-linejoin="round"/>
</svg>
